<?xml version="1.0" encoding="utf-8"?>
<!-- Generator: Adobe Illustrator 27.0.0, SVG Export Plug-In . SVG Version: 6.00 Build 0)  -->
<svg version="1.1" id="Layer_1" xmlns="http://www.w3.org/2000/svg" xmlns:xlink="http://www.w3.org/1999/xlink" x="0px" y="0px"
	 viewBox="0 0 83 80.3" style="enable-background:new 0 0 83 80.3;" xml:space="preserve">
<style type="text/css">
	.st0{fill:#FFFFFF;}
</style>
<g>
	<path class="st0" d="M82.5,40.1c0,17.8-8,39.4-41,39.4c-33,0-41-21.6-41-39.4s8-39.4,41-39.4C74.5,0.7,82.5,22.3,82.5,40.1z
		 M38.8,73c0.9,0,1.8,0.1,2.7,0.1C70.8,73,78,53.8,78,37.9C78,22.9,71.5,4.8,45.7,3l-1.6,4.3c-0.9,0-1.8-0.1-2.7-0.1
		C12.1,7.2,5,26.5,5,42.3c0,15.1,6.4,33.2,32.3,34.9L38.8,73z"/>
	<path class="st0" d="M72.6,40.1c0,13.2-6.1,29.2-31.2,29.2c-25.1,0-31.2-16-31.2-29.2S16.4,11,41.5,11C66.5,11,72.6,27,72.6,40.1z
		 M40.4,17.5C20.5,18,15.7,31.3,15.7,42.3c0,11.1,5,24.6,25.3,24.8l1.6-4.4C62.4,62.3,67.3,49,67.3,37.9c0-11.1-5-24.6-25.3-24.8
		L40.4,17.5z"/>
	<path class="st0" d="M44.1,58.4l2.6-7.1c2.1-5.8,0.9-9.5-5.2-11.2c-6.1-1.6-7.3-5.4-5.2-11.2l2.6-7.1c0.8-0.1,1.7-0.1,2.6-0.1
		c16.2,0,20.1,10.1,20.1,18.4C61.6,48,58.1,57.4,44.1,58.4z"/>
</g>
</svg>
